<svg width="36" height="25" viewBox="0 0 36 25" fill="none" xmlns="http://www.w3.org/2000/svg">
<path d="M0 0H11.9997V24.3733H0V0ZM24.0003 0H36V24.3733H24.0003V0Z" fill="#D80027"/>
<path d="M18.5 10.1519L18.8542 11.7086H20L19.0729 12.6707L19.4271 14.2274L18.5 13.2653L17.5729 14.2274L17.9271 12.6707L17 11.7086H18.1458L18.5 10.1519Z" fill="#FFDA44"/>
<path d="M20.2677 10.1519L19.6048 10.9416C19.8875 11.2785 20.0625 11.7439 20.0625 12.258C20.0625 13.286 19.3629 14.1195 18.5 14.1195C17.6371 14.1195 16.9375 13.286 16.9375 12.258C16.9375 11.744 17.1124 11.2785 17.3952 10.9416L16.7323 10.1519C16.2799 10.6909 16 11.4355 16 12.2579C16 13.9029 17.1193 15.2364 18.5 15.2364C19.8807 15.2364 21 13.9029 21 12.2579C21 11.4355 20.7201 10.6909 20.2677 10.1519Z" fill="#6DA544"/>
</svg>
