<svg width="36" height="24" viewBox="0 0 36 24" fill="none" xmlns="http://www.w3.org/2000/svg">
    <path d="M-27 -0.999634H9V22.9999H-27V-0.999634Z" fill="white" />
    <path d="M0 0.000366211H36V8.00018H0V0.000366211Z" fill="#D80027" />
    <path d="M0 16H36V23.9998H0V16Z" fill="#0052B4" />
    <path
        d="M20.361 9.23938L19.4757 10.1248C19.8532 10.5025 20.0869 11.0242 20.0869 11.6005C20.0869 12.753 19.1525 13.6874 18 13.6874C16.8474 13.6874 15.9131 12.753 15.9131 11.6005C15.9131 11.0243 16.1467 10.5025 16.5244 10.1248L15.639 9.23938C15.0347 9.84365 14.6609 10.6784 14.6609 11.6004C14.6609 13.4446 16.1558 14.9395 18 14.9395C19.8442 14.9395 21.3391 13.4446 21.3391 11.6004C21.3391 10.6785 20.9653 9.84365 20.361 9.23938Z"
        fill="#6DA544" />
    <path
        d="M18 10.3484L18.3108 11.305H19.3166L18.5029 11.8962L18.8137 12.8527L18 12.2615L17.1863 12.8527L17.4971 11.8962L16.6834 11.305H17.6891L18 10.3484Z"
        fill="#FFDA44" />
</svg>