<svg width="36" height="25" viewBox="0 0 36 25" fill="none" xmlns="http://www.w3.org/2000/svg">
<g clip-path="url(#clip0_151_987)">
<path d="M0 0H36V24.3731H0V0Z" fill="white"/>
<path d="M0 2.70813H36V5.41625H0V2.70813ZM0 8.12437H36V10.8325H0V8.12437ZM0 13.5406H36V16.2487H0V13.5406ZM0 18.9568H36V21.665H0V18.9568Z" fill="#0038A8"/>
<path d="M0 0H18V13.5406H0V0Z" fill="white"/>
<path d="M9.00351 9.88467L7.94386 11.4953L7.6772 9.57822L6.03509 10.5617L6.61053 8.7159L4.70176 8.87268L6.00702 7.46161L4.23158 6.77033L6.01404 6.07904L4.70176 4.66797L6.60351 4.83188L6.02807 2.98608L7.67018 3.96956L7.94386 2.05249L9.00351 3.66311L10.0632 2.05249L10.3298 3.96956L11.9719 2.98608L11.3965 4.83188L13.2982 4.67509L11.993 6.08617L13.7754 6.77745L11.993 7.46874L13.2982 8.87981L11.3965 8.72303L11.9719 10.5688L10.3298 9.58535L10.0561 11.5024L9.00351 9.88467ZM9.00351 9.84903C10.6807 9.91317 12.0912 8.59475 12.1544 6.89148C12.2175 5.18821 10.9193 3.75576 9.24211 3.69162H9.00351C7.32632 3.74863 6.01404 5.17396 6.07018 6.8701C6.11228 8.49497 7.40351 9.79915 9.00351 9.84903ZM9.00351 9.09361C7.68421 9.09361 6.61755 8.01036 6.61755 6.67055C6.61755 5.33074 7.68421 4.2475 9.00351 4.2475C10.3228 4.2475 11.3895 5.33074 11.3895 6.67055C11.3895 8.01036 10.3158 9.09361 9.00351 9.09361Z" fill="#FED443"/>
</g>
<defs>
<clipPath id="clip0_151_987">
<rect width="36" height="24.3731" fill="white"/>
</clipPath>
</defs>
</svg>
