<svg width="48" height="49" viewBox="0 0 48 49" fill="none" xmlns="http://www.w3.org/2000/svg">
<path d="M0 48.9896L3.374 36.472C1.292 32.8079 0.198 28.6543 0.2 24.3951C0.206 11.0793 10.876 0.243408 23.986 0.243408C30.348 0.245439 36.32 2.76196 40.812 7.32785C45.302 11.8937 47.774 17.9626 47.772 24.4174C47.766 37.7353 37.096 48.5712 23.986 48.5712C20.006 48.5691 16.084 47.5556 12.61 45.6302L0 48.9896ZM13.194 41.2572C16.546 43.2781 19.746 44.4887 23.978 44.4907C34.874 44.4907 43.75 35.4849 43.756 24.4134C43.76 13.3196 34.926 4.3259 23.994 4.32184C13.09 4.32184 4.22 13.3277 4.216 24.3971C4.214 28.9163 5.518 32.3001 7.708 35.8403L5.71 43.2497L13.194 41.2572ZM35.968 30.1593C35.82 29.9075 35.424 29.7572 34.828 29.4545C34.234 29.1519 31.312 27.6916 30.766 27.4905C30.222 27.2894 29.826 27.1879 29.428 27.7931C29.032 28.3964 27.892 29.7572 27.546 30.1593C27.2 30.5615 26.852 30.6123 26.258 30.3096C25.664 30.007 23.748 29.3713 21.478 27.3138C19.712 25.7133 18.518 23.737 18.172 23.1318C17.826 22.5285 18.136 22.2015 18.432 21.9009C18.7 21.6308 19.026 21.1961 19.324 20.8427C19.626 20.4934 19.724 20.2415 19.924 19.8373C20.122 19.4352 20.024 19.0818 19.874 18.7791C19.724 18.4785 18.536 15.5071 18.042 14.2986C17.558 13.1226 17.068 13.281 16.704 13.2627L15.564 13.2424C15.168 13.2424 14.524 13.3927 13.98 13.998C13.436 14.6032 11.9 16.0615 11.9 19.033C11.9 22.0045 14.03 24.8744 14.326 25.2766C14.624 25.6788 18.516 31.7761 24.478 34.3901C25.896 35.0116 27.004 35.3833 27.866 35.6616C29.29 36.1206 30.586 36.0556 31.61 35.9012C32.752 35.7286 35.126 34.4409 35.622 33.0313C36.118 31.6197 36.118 30.4112 35.968 30.1593Z" fill="black"/>
</svg>
